<?xml version="1.0" encoding="utf-8"?>
<!-- Generator: Adobe Illustrator 25.0.0, SVG Export Plug-In . SVG Version: 6.00 Build 0)  -->
<svg version="1.1" id="Layer_1" xmlns="http://www.w3.org/2000/svg" xmlns:xlink="http://www.w3.org/1999/xlink" x="0px" y="0px"
	 viewBox="0 0 1874.47 720.04" style="enable-background:new 0 0 1874.47 720.04;" xml:space="preserve">
<style type="text/css">
	.st0{fill-rule:evenodd;clip-rule:evenodd;fill:#e50000;}
</style>
<g>
	<path class="st0" d="M761.05,504.91c-2.12,6.97-4.24,13.93-8.73,21.59c-2.46,5.9-7.03,13.92-10.08,21.57
		c-2.8,5.57-5.59,10.43-6.69,14.96c4.91-3.14,12.28-7.3,17.02-10.8c82.15-56.36,146.77-133.97,178.44-217.83
		c16.43-43.14,32.01-100.91,27.18-151.36c-5.59-49.41-13.89-67.16-19.48-73.08c-7.71,10.44-9.74,24.71-11.1,36.19
		c-6.69-2.78-0.76-30.63-4.23-42.8c-6.6-26.45-20.49-38.98-49.03-45.58c8.72,10.78,9.74,16.7,6.94,29.57
		c-7.96-26.79-35.06-24.7-47.59-45.93c-1.1,6.61-4.91,26.1-2.11,45.93c1.01,9.05,4.15,21.93,9.06,28.89
		c-7.28-3.48-12.87-7.66-15.33-27.84c-4.83,33.06,4.15,54.98,26.85,67.85c6.18,4.88,27.78,9.4,34.72,25.41
		c-9.4-6.96-14.31-12.18-34.72-10.78c2.03,14.96,22.19,26.1,22.87,58.1c1.78,72.04-34.73,157.99-105.36,229.67
		c-2.46,22.97-3.47,30.27-8.63,45.59v1.03L761.05,504.91L761.05,504.91z M168.7,431.86c-7.67-11.49-4.16-14.63,1.03-8.36
		c17.04,23.67,39.27,51.5,60.54,68.21c30.94,24.36,61.22,43.15,91.12,57.41c19.82,9.05,69.18,27.15,108.52,33.76
		c74.73,10.43,144.98-5.22,207.57-36.19c5.93,6.27,5.93,18.1,5.93,22.27c0,4.52-1.02,9.05-2.12,13.58
		c-2.37,9.05-5.5,14.95-10.08,22.26c-131.4,37.59-279.26,16.35-411.03-104.39C201.39,482.99,181.21,454.47,168.7,431.86
		L168.7,431.86z M195.48,421.05c7.97,3.83,10.44,6.97,27.78,14.97c16.74,8.71,37.58,17.05,57.04,23.66
		c20.54,6.96,46.65,11.84,83.14,12.53c62.23,1.4,148.52-84.21,227.12-156.23c38.62-33.75,108.48-111.7,152.7-111
		c-6.94,12.18-9.06,13.56-16.01,18.79c69.88-24.36,80.37,35.5,101.21,44.19c-5.93-0.7-17.7,1.39-33.03-7.65
		c10.08,12.87,31,35.49,49.04,27.48c-4.91,15.31-25.41,22.27-32.35,24.71c-12.2,2.43-20.15,3.82-36.5,0.35
		c12.87,11.48,22.53,14.96,38.53,11.83c-10.08,8-16.01,9.04-27.78,11.14c-40.74,0.34-51.41-16.01-68.18-22.28
		c8.39,21.23,30.66,27.49,30.66,29.23c-11.51-1.05-20.92-1.05-32.69-6.61c-73.43-11.48-211.52,178.17-364.57,160.07
		c-31.95-3.83-55.28-11.13-75.46-21.57c-22.23-11.49-65.01-34.81-87.97-52.55C183.25,418.97,186.76,417.23,195.48,421.05
		L195.48,421.05z M146.4,227.24c8.33,21.23,21.57,43.14,24.71,67.85c2.77,23.65,17.7,39.67,40.66,51.15
		c35.54,19.83,138.43,19.48,231-38.63c74.1-8,89.69-51.15,140.08-112.05c-65.98,19.48-129.69,27.13-197.85,21.22
		c-42.77-1.38-67.13-19.83-90.08-16c-13.24,1.39-26.77,22.27-66.77,19.49c-34.45-2.44-74.07-21.58-108.89-64.72
		C103.63,157.99,141.86,213.32,146.4,227.24L146.4,227.24z M151.67,171.22c-17.11-7.32-11.19-0.35,7.6,15.65
		c36.57,25.41,81.03,30.97,106.77,17.75c8.05-5.92,15.35-9.74,21.57-12.18c33.42-12.53,53.23,13.56,99.82,12.87
		c22.6-0.34,59.82,2.44,87.68-3.82c29.9-4.87,50.41-33.76,63.63-73.07c-55.29,22.62-142.24,52.89-164.18,46.97
		c-44.46-10.43-70.93-16.36-96.67-5.21c-29.91,17.4-50.09,27.14-60.18,26.79c-4.53,0-9-0.35-12.87-0.7
		c1.39-1.04,9.42-15.66-6.22-20.88c1.03,24.36-28.23,8.36-36.2,3.83C158.98,177.13,155.47,173.99,151.67,171.22L151.67,171.22z
		 M65.38,347.63C50.75,337.19,21.94,351.81,0,379.3c30.93-8.7,45.93,18.1,74.44,7.65c-20.54,16.01-8.03,48.72-21.93,73.42
		c20.19-29.58,51.12-23.66,61.21-54.98c-4.83,33.05,22.31,40.02,26.76,65.77c1.1-25.06,25.45-37.59,8.41-74.11
		c21.5,25.4,40.66,11.13,71.3,25.4c-22.96-19.83-13.6-37.93-46.66-54.28c38.61,15.66,38.25-1.73,81.4,4.87
		c-4.83-4.87-11.85-7.64-19.46-8.7c-33.78-3.82-55-27.49-62.96-44.19c-1.39-3.13-8.34-2.44-8.7,3.13
		C154.73,389.04,105.01,408.87,65.38,347.63L65.38,347.63z M277.88,80.74c2.41-0.35,4.9,1.73,5.2,4.52
		c0.36,2.79-1.69,5.22-4.47,5.22c-2.78,0.35-4.9-1.74-5.27-4.52C272.98,83.52,275.1,81.08,277.88,80.74L277.88,80.74z M147.79,68.21
		c-23.25-5.91-36.5-25.05-32.32-46.97c17.39,27.49,73.34,18.44,93.52,33.4c3.14,2.08,4.53,3.49,5.26,4.52l4.18,5.58l5.56,4.87
		c4.17,3.48,3.14,11.14,1.75,13.91c-30.64,16.36-13.96,58.81-52.5,64.03c7.97-45.58-12.21-45.93-22.97-36.53
		c-9.8,8.01-16.74,41.76,13.54,17.75c-3.44,14.26-3.44,22.27-14.93,28.53c-21.28,7.66-41.38-16-22.3-46.98
		c5.92-8-0.66-22.26-10.75-14.61c-52.88,44.54-101.21-6.62-13.24-28.2C46.95,106.84,135.29,84.22,147.79,68.21L147.79,68.21z
		 M110.57,107.18c-42.04,28.89-57.69,66.47-65.73,101.27c-5.86,24.35,0,74.82,9.42,99.87l-0.36-0.7
		c40,110.31,112.33,76.55,103.98-10.09c-18.05-115.87-71.29-116.22-38.61-192.77C116.13,104.75,113.35,105.45,110.57,107.18
		L110.57,107.18z M232.32,86.3c2.41,12.87,16.39,23.66,32.03,25.75c11.48,1.4,20.84-7.65,33.72,3.14
		c5.19,4.87,13.89,12.53,21.57,9.74c-19.16-7.66-6.66-23.66-29.25-49.77C265.38,46.29,194.46,39.68,201.03,0
		c-9.73,13.57-10.09,28.53,22.23,48.72c-1.03,7.99,0.73,13.91,4.9,16.35c1.02,0.69,2.78,1.74,4.17,1.74
		c3.15,0.35,5.2,1.05,6.59,1.73C233.05,75.53,231.3,81.44,232.32,86.3L232.32,86.3z M150.27,479.17
		c3.81-0.35,8.34,18.79,14.56,28.19C265.38,665.69,530.35,734.59,629.86,621.5c8.38-9.74,17.02-27.49,22.28-45.23
		c3.8-18.45,4.15-33.41-8.31-49.07c-4.57-5.91-12.87-10.1-20.24-18.45c5.93-2.43,34.72,4.53,44.88,18.1
		c4.15-1.04-3.13-15.31-8.39-17.74c-23.97-13.93-43.45-55.34-24.98-98.48c0.33,11.14,4.49,34.44,18.04,32.01
		c-11.1-34.8,0-55.33,26.76-83.17c20.58,12.53,42.18,27.84,43.52,73.43c10.08-3.14,10.42-12.53,12.12-31.66
		c18.12,30.26,16.77,76.55-10.08,114.13c13.63-9.04,17.02-13.57,25.49-29.58c1.61,35.84-20.24,53.93-28.62,89.09
		c-4.83,13.56-9.99,26.79-15.58,35.83c-112.38,199.74-445.18,101.26-550.92-98.82C151.3,503.18,144.35,478.82,150.27,479.17z"/>
	<path class="st0" d="M1715.76,581.35c-1.51-3.36-3.85-6.24-8.18-8.18c-3.74-2.37-9.57-3.35-16.82-3.35h-25.93v5.76h5.72
		c5.96,0,10.17,1.44,13.08,3.84c2.81,2.41,4.67,5.77,5.72,10.07c1.4,4.33,1.87,9.61,1.4,15.36v102.21h26.4V595.73
		c2.45-2.89,5.26-5.27,8.17-7.68c3.39-2.42,6.19-4.34,10.16-5.77c3.27-1.43,7.12-2.39,10.98-2.39c4.67,0,8.98,1.45,12.49,3.83
		c3.27,2.4,6.07,6.74,8.06,12.48c1.87,5.76,2.92,13.43,2.92,23.03v87.82h25.93v-87.82c0-1.91,0-4.31,0-6.72c0-2.41,0-5.27-0.59-7.67
		c0-2.4-0.46-4.32-0.81-5.75c1.87-2.89,4.67-5.76,8.06-8.63c3.39-3.36,6.78-5.78,10.51-7.21c4.43-1.91,8.17-3.36,12.03-3.36
		c4.91,0,9.1,1.45,12.49,3.83c3.39,2.4,6.19,6.74,8.06,12.48c2.1,5.76,2.92,13.43,2.92,23.03v87.82h25.93v-87.82
		c0-10.08-0.93-19.18-2.91-25.9c-2.33-6.73-5.26-11.99-8.99-15.84c-3.86-3.84-8.18-6.71-13.08-8.16c-4.67-1.92-9.93-2.39-15.76-2.39
		c-5.25,0-10.51,0.96-15.76,2.39c-5.72,1.45-10.63,3.83-15.42,6.71c-4.79,3.36-9.11,6.71-12.37,11.52
		c-2.46-5.75-5.38-9.59-9.23-12.47c-3.27-3.35-7.71-5.29-12.03-6.24c-4.2-1.44-8.99-1.91-13.78-1.91c-5.85,0-11.1,0.96-15.89,1.91
		c-4.78,1.44-9.11,3.36-12.96,5.77c-3.27,1.92-6.66,4.3-9.11,6.72h-1.41V581.35z M1530.66,638.44c0,10.08,1.41,19.18,4.21,27.85
		c2.92,8.63,6.77,16.3,12.5,22.54c5.26,6.71,12.02,11.5,20.2,15.35c8.17,3.85,16.7,5.75,27.32,5.75c10.05,0,19.15-1.91,27.32-5.75
		c7.71-3.85,14.38-8.64,20.21-15.35c5.26-6.24,9.58-13.92,12.49-22.54c2.33-8.66,4.21-17.77,4.21-27.85s-1.87-19.2-4.21-27.82
		c-2.92-8.65-7.24-16.32-12.49-22.55c-5.83-6.72-12.51-12.01-20.21-15.36c-8.17-3.84-17.27-5.75-27.32-5.75
		c-10.63,0-19.15,1.91-27.32,5.75c-8.18,3.36-14.95,8.65-20.2,15.36c-5.72,6.24-9.58,13.91-12.5,22.55
		C1532.06,619.24,1530.66,628.36,1530.66,638.44L1530.66,638.44z M1631.33,638.44c0,8.15-0.94,16.32-2.81,23.51
		c-1.52,7.2-3.86,13.43-7.24,19.19c-3.39,5.29-7.24,9.6-11.56,12.47c-4.2,2.88-9.58,4.33-14.83,4.8c-5.72-0.46-10.63-1.92-14.83-4.8
		c-4.79-2.88-8.64-7.18-11.57-12.47c-3.38-5.76-5.72-11.99-7.71-19.19c-1.4-7.19-2.45-15.36-2.45-23.51c0-8.65,1.05-16.3,2.45-23.5
		c1.99-7.21,4.32-13.45,7.71-19.2c2.93-5.27,6.78-9.61,11.57-12.48c4.2-2.88,9.11-4.8,14.83-4.8c5.26,0,10.63,1.91,14.83,4.8
		c4.32,2.87,8.18,7.21,11.56,12.48c3.38,5.75,5.72,11.99,7.24,19.2C1630.4,622.14,1631.33,629.79,1631.33,638.44L1631.33,638.44z
		 M1462.11,566.95c-11.1,0-20.2,1.91-28.38,5.75c-8.17,3.36-14.94,8.65-20.08,15.36c-5.26,6.24-9.11,13.91-12.02,22.55
		c-2.46,8.63-3.86,17.74-3.86,27.82s1.41,19.18,3.86,27.85c2.91,8.63,6.77,16.3,12.02,22.54c5.15,6.71,11.91,11.5,20.08,15.35
		c8.18,3.85,17.28,5.75,28.38,5.75c7.59,0,14.84-0.96,21.61-2.87c6.08-2.41,12.37-5.76,17.75-10.09
		c5.14-4.31,9.92-10.55,14.71-17.76l-6.19-4.31c-3.39,4.8-6.66,9.1-10.52,12.47c-4.32,3.36-8.65,6.23-13.89,8.16
		c-4.79,1.91-11.1,2.87-17.76,2.87c-7.24-0.46-13.54-1.92-18.8-4.8c-5.14-2.88-9.58-7.18-13.31-12.47
		c-3.39-5.76-5.83-11.99-7.71-19.19c-1.4-7.19-2.45-15.36-2.45-23.51c0-8.65,1.05-16.3,2.45-23.5c1.87-7.21,4.32-13.45,7.71-19.2
		c3.73-5.27,8.17-9.61,13.31-12.48c5.26-2.88,11.56-4.8,18.8-4.8c7.13,0,13.44,1.44,18.69,4.31c5.72,2.42,10.04,6.24,13.43,12.01
		c3.39,5.28,5.26,11.99,5.72,20.16h5.72c0.47-7.21,0-12.97,0-17.75c-0.35-4.8-0.94-8.64-1.87-11.99c-0.93-2.9-2.91-5.77-5.25-8.17
		c-3.39-3.35-9.11-6.22-16.35-7.67C1481.26,567.91,1472.03,566.95,1462.11,566.95L1462.11,566.95z M1300.48,707.07h25.93V599.1
		c3.27-4.32,7.12-8.17,11.91-10.56c4.79-2.9,10.04-3.85,15.77-4.32c5.37,0,9.69,0.97,13.89,2.39c4.33,1.45,7.25,3.86,9.58,6.73
		l11.68-9.12c-1.52-2.88-3.04-5.29-4.44-7.68c-1.87-1.92-3.74-3.85-5.72-5.29c-1.52-0.96-3.39-1.91-5.37-2.39
		c-1.87-0.47-3.74-0.95-6.08-1.44c-1.99-0.47-4.32-0.47-6.31-0.47c-5.72,0-11.09,0.96-15.3,2.39c-4.78,1.91-8.65,3.83-11.56,6.24
		c-3.39,2.41-6.19,4.8-8.06,7.19h-1.51c-1.41-4.31-3.87-7.67-7.72-9.6c-4.32-2.37-9.58-3.35-16.7-3.35H1277v5.76h2.8
		c5.72,0,10.05,1.44,12.96,3.84c3.39,2.41,5.26,5.77,6.19,10.07c0.93,4.33,1.52,9.61,1.52,15.36L1300.48,707.07L1300.48,707.07z
		 M1256.33,707.07v-78.71c0-10.55-0.93-19.67-2.45-26.87c-1.99-7.19-4.32-12.95-7.71-17.76c-3.27-4.31-7.12-7.67-11.44-10.56
		c-4.32-2.37-9.11-3.83-13.9-4.78c-4.79-0.96-10.16-1.44-15.42-1.44c-4.31,0-8.64,0-12.84,0.47c-4.9,0.49-8.64,0.96-13.09,1.92
		c-3.73,0.95-7.12,1.91-10.51,3.36c-2.8,0.96-5.25,2.4-7.24,4.31c-2.34,2.4-4.32,5.28-5.14,7.68c-1.05,2.88-1.51,5.78-1.99,9.12
		c0,2.87,0,6.24,0,9.59h12.96c1.4-6.23,3.74-11.03,6.78-14.87c2.81-3.85,6.65-6.25,10.98-7.68c4.32-1.44,9.11-2.4,14.36-2.4
		c4.32,0,8.18,0.95,12.02,1.91c3.86,1.45,7.13,4.32,9.58,7.69c2.8,3.84,5.26,8.63,6.77,15.35c1.4,6.23,2.33,14.39,2.33,24.95h-9.11
		c-9.58,0-19.15,0.5-27.8,1.92c-9.1,0.96-16.81,3.37-24.05,6.24c-6.66,2.89-12.38,7.19-16.23,12.48
		c-3.97,5.27-5.83,11.99-6.19,20.15c0.35,6.23,1.4,11.99,2.81,16.32c1.87,4.79,4.32,8.63,7.59,11.98c2.92,2.88,6.31,5.29,10.15,7.21
		c3.74,1.93,7.6,3.36,11.45,3.84c3.39,0.96,7.24,1.43,10.62,1.43c7.12,0,13.43-0.96,18.68-2.4c5.26-1.92,10.05-3.84,13.44-6.22
		c3.85-2.41,6.65-4.82,8.64-7.7h1.52l9.93,13.45h14.5V707.07z M1230.41,679.22c-1.98,2.89-4.43,5.76-6.66,8.63
		c-2.45,2.42-5.37,4.81-8.75,6.25c-3.28,1.93-7.6,2.39-12.51,2.88c-4.67,0-9.57-0.95-13.89-3.36c-3.86-1.92-7.12-4.78-9.93-9.11
		c-2.45-3.84-3.85-9.13-3.85-15.35c0-5.76,1.87-11.03,5.72-15.35s9.11-7.67,15.88-10.09c7.12-2.38,15.29-3.83,24.88-3.83h9.11
		L1230.41,679.22L1230.41,679.22z M1133.94,714.24c-6.18,0-11.44-2.39-15.3-6.71c-4.32-4.79-7.12-11.5-9.57-19.68
		c-1.99-8.63-2.93-18.7-2.93-30.69V514.65h-25.8l-68.67,151.65l-69.95-151.65h-27.91v192.43h11.56V542l75.8,165.08h6.3l72.88-162.19
		v112.28c-0.59,11.04,0.35,20.63,2.33,28.32c1.52,8.14,4.32,14.39,8.65,19.67c3.85,5.28,9.57,9.11,16.35,11.52
		c7.13,2.4,15.76,3.36,26.27,3.36v-5.8H1133.94z M1874.47,403.8v-79.16c0-10.09-0.93-19.21-2.33-26.4
		c-1.98-7.21-4.43-12.96-7.7-17.74c-3.28-4.33-7.13-8.17-11.45-10.56c-4.44-2.4-9.23-4.31-14.01-5.28
		c-4.79-0.97-10.04-0.97-15.3-0.97c-4.32,0-8.64,0-12.96,0.49c-4.79,0.48-8.64,0.95-12.96,1.91c-3.85,0.48-7.12,1.44-10.51,2.88
		c-2.93,1.44-5.26,2.89-7.24,4.8c-2.33,2.41-4.32,4.8-5.25,7.68s-1.52,5.76-1.87,8.63c0,3.37,0,6.72,0,10.08h12.97
		c1.4-6.24,3.73-11.52,6.66-14.88c2.79-3.83,6.65-6.24,10.97-7.67c4.44-1.93,9.11-2.4,14.49-2.4c4.2,0,8.06,0.47,12.03,1.91
		c3.73,1.44,7.12,3.83,9.57,7.68c2.8,3.36,5.26,8.64,6.66,14.88c1.52,6.71,2.33,14.87,2.33,24.96h-8.99
		c-9.57,0-19.27,0.96-27.91,1.9c-9.11,1.46-16.82,3.37-23.94,6.73c-6.77,2.88-12.49,7.21-16.35,12.48c-3.85,5.28-5.72,12-6.31,19.65
		c0.59,6.74,1.52,12.01,3.04,16.8c1.87,4.8,4.31,8.64,7.59,11.52c2.92,3.36,6.31,5.75,10.17,7.68c3.73,1.92,7.59,3.36,11.44,3.84
		c3.27,0.95,7.12,1.44,10.63,1.44c7.12-0.48,13.31-0.95,18.57-2.88c5.38-1.44,10.16-3.36,13.43-5.76c3.85-2.88,6.76-5.27,8.63-7.68
		h1.52l10.05,13.44L1874.47,403.8L1874.47,403.8z M1848.54,375.95c-1.87,2.9-4.31,5.78-6.65,8.18c-2.33,2.87-5.25,4.79-8.64,6.71
		c-3.26,1.44-7.59,2.39-12.49,2.39c-4.68,0-9.58-0.95-13.9-2.88c-3.85-1.92-7.13-4.78-10.04-9.11c-2.34-4.32-3.86-9.11-3.86-15.85
		c0-5.75,1.87-10.55,5.73-15.35c3.85-4.31,9.22-7.68,15.88-10.08c7.24-2.39,15.42-3.34,24.99-3.34h8.99v39.33H1848.54z
		 M1728.72,235.85c0-3.34-1.05-6.24-2.45-9.1c-1.41-2.89-3.27-5.29-5.72-7.21c-2.46-1.44-5.26-2.4-8.17-2.4
		c-4.32,0-7.71,1.44-10.05,3.37c-2.33,2.39-3.39,5.75-3.39,9.58c0,3.36,0.47,6.71,1.87,9.6c1.52,2.39,3.86,4.8,6.32,6.71
		c2.45,1.44,4.78,2.41,8.17,2.41c3.85,0,7.13-0.97,9.57-3.36C1727.32,243.06,1728.72,240.18,1728.72,235.85L1728.72,235.85z
		 M1730.12,301.6c0-7.21,0-13.44-0.93-17.76c-1.05-4.8-2.45-8.17-4.32-11.04c-1.87-2.4-4.79-3.84-8.17-4.79
		c-3.28-0.97-7.7-1.45-12.5-1.45h-26.28v5.76h5.72c5.72,0,10.05,1.44,12.84,3.35c3.5,2.88,5.38,6.24,6.31,10.56
		c1.05,4.32,1.4,9.12,1.4,15.36v102.2h25.93V301.6L1730.12,301.6z M1620.82,263.68c-10.63,0-20.2,1.93-28.38,5.28
		c-8.18,3.84-14.84,9.12-20.09,15.36c-5.25,6.71-9.1,14.38-11.56,23.02c-2.79,8.63-3.85,17.75-3.85,27.84
		c0,9.59,1.06,19.18,3.85,27.34c2.46,9.12,6.31,16.33,11.56,23.05c5.26,6.21,11.91,11.5,20.09,15.34
		c8.18,3.85,17.75,5.28,28.38,5.76c8.17,0,15.3-1.44,21.61-3.35c6.66-1.92,12.49-5.28,17.75-9.6c5.72-4.8,10.39-10.56,14.83-17.77
		l-5.84-4.31c-3.27,4.8-7.12,8.65-10.98,12.49c-3.85,3.34-8.64,6.22-13.43,7.65c-5.26,1.93-11.1,2.89-17.75,2.89
		c-7.59,0-13.89-1.44-19.15-4.32c-5.26-3.35-9.69-7.66-12.97-12.95c-3.39-5.27-6.3-11.53-7.71-18.72
		c-1.86-7.19-2.92-15.35-2.92-23.5c0-8.65,1.06-16.31,2.92-23.52c1.41-7.2,4.32-13.91,7.71-19.18c3.27-5.29,7.71-9.6,12.97-12.48
		c5.26-3.36,11.56-4.8,19.15-4.8c6.66,0,12.97,1.44,18.22,3.83c5.72,2.88,10.04,6.73,13.55,11.99c3.27,5.76,5.72,12.48,6.07,20.64
		h5.72c0-7.2,0-13.43-0.35-17.75c0-4.8-1.05-8.64-1.87-12c-1.05-2.88-2.45-5.75-4.91-8.16c-3.85-3.83-9.11-6.23-16.35-7.68
		C1639.97,264.17,1631.33,263.68,1620.82,263.68L1620.82,263.68z M1527.74,403.8v-79.16c0-10.09-0.93-19.21-2.81-26.4
		c-1.98-7.21-4.32-12.96-7.83-17.74c-3.26-4.33-6.65-8.17-10.97-10.56c-4.32-2.4-9.11-4.31-13.89-5.28
		c-5.26-0.97-10.05-0.97-15.89-0.97c-4.32,0-8.52,0-12.84,0.49c-4.32,0.48-8.64,0.95-12.5,1.91c-3.85,0.48-7.7,1.44-10.63,2.88
		c-3.27,1.44-5.72,2.89-7.59,4.8c-2.33,2.41-3.85,4.8-4.79,7.68c-1.4,2.88-1.87,5.76-1.87,8.63c-0.59,3.37-0.59,6.72-0.59,10.08
		h13.08c1.41-6.24,3.74-11.52,6.66-14.88c3.27-3.83,6.65-6.24,10.98-7.67c4.32-1.93,9.11-2.4,14.36-2.4c4.9,0,8.64,0.47,12.49,1.91
		c3.39,1.44,6.66,3.83,9.58,7.68c2.8,3.36,4.79,8.64,6.3,14.88c1.87,6.71,2.46,14.87,2.46,24.96h-8.76
		c-10.04,0-19.16,0.96-28.26,1.9c-8.64,1.46-16.82,3.37-23.59,6.73c-7.13,2.88-12.38,7.21-16.23,12.48
		c-4.32,5.28-6.19,12-6.19,19.65c0,6.74,0.93,12.01,2.8,16.8c1.98,4.8,4.32,8.64,7.24,11.52c3.39,3.36,6.66,5.75,10.51,7.68
		c3.39,1.92,7.25,3.36,11.1,3.84c3.85,0.95,7.12,1.44,10.51,1.44c7.24-0.48,13.43-0.95,19.15-2.88c5.38-1.44,9.7-3.36,13.55-5.76
		c3.27-2.88,6.19-5.27,8.18-7.68h1.4l10.04,13.44L1527.74,403.8L1527.74,403.8z M1501.47,375.95c-1.99,2.9-3.97,5.78-6.31,8.18
		c-2.92,2.87-5.72,4.79-9.22,6.71c-3.27,1.44-7.6,2.39-12.39,2.39c-4.78,0-9.1-0.95-13.43-2.88c-4.32-1.92-7.7-4.78-10.04-9.11
		c-2.92-4.32-3.85-9.11-3.85-15.85c0-5.75,1.98-10.55,5.25-15.35c3.85-4.31,9.11-7.68,16.35-10.08c6.65-2.39,15.3-3.34,24.88-3.34
		h8.76L1501.47,375.95L1501.47,375.95z M1323.48,403.8h26.4V295.83c2.8-4.8,6.66-8.15,11.45-11.03c4.79-2.4,10.16-3.85,16.24-3.85
		c4.91,0,9.69,0.97,13.89,2.41c3.85,1.44,7.35,3.36,9.23,6.24l12.03-8.64c-1.52-2.87-2.93-5.28-4.91-7.66
		c-1.4-1.93-3.27-3.85-5.73-5.28c-1.39-0.97-2.91-1.93-4.78-2.4c-1.98-0.97-4.32-1.44-6.19-1.44c-2.45-0.49-4.32-0.49-6.3-0.49
		c-5.72,0-11.09,0.97-15.3,2.4c-4.8,1.44-8.65,3.85-12.03,6.24c-3.39,2.41-5.73,4.8-7.6,7.19h-1.52c-1.4-4.31-4.32-7.66-8.17-9.58
		c-3.86-2.4-9.58-3.36-16.71-3.36h-23v5.76h2.8c5.72,0,10.04,1.44,12.97,3.35c2.8,2.88,4.78,6.24,5.71,10.56
		c0.94,4.32,1.52,9.12,1.52,15.36L1323.48,403.8L1323.48,403.8z M1208.33,216.67c-10.04,0-18.68,1.91-26.39,5.28
		c-7.59,2.87-13.89,7.67-19.62,12.95c-5.26,5.75-10.16,12.47-13.43,19.66c-3.85,7.68-6.31,15.37-8.17,24
		c-1.41,8.17-2.46,16.8-2.46,25.92c0,17.27,1.99,32.16,5.85,44.14c3.74,12,8.64,21.59,14.83,28.79
		c6.65,7.19,13.89,12.47,22.54,15.83c8.17,2.89,17.28,4.32,26.85,4.32c6.67,0,12.97-0.48,18.69-0.95
		c5.26-0.97,10.04-2.41,14.49-3.84c4.21-1.44,8.52-3.36,11.91-5.29v-50.85c0-3.37,0.47-6.25,0.93-9.61
		c0.47-3.36,1.99-6.24,3.39-9.12c1.86-2.87,4.79-5.75,8.17-7.68c3.39-2.4,8.06-4.32,13.9-5.75c5.72-0.96,13.43-1.92,22.08-1.92v5.77
		c-6.31,0-10.98,1.43-14.48,3.35c-2.81,2.41-5.26,5.77-6.19,9.59c-0.94,4.34-1.4,9.12-1.4,14.89v54.7
		c-6.66,4.31-13.9,8.16-21.6,10.55c-7.13,2.88-15.3,4.79-23.47,6.23c-8.17,0.97-16.82,1.93-26.4,1.93
		c-11.56,0-22.53-1.93-32.58-5.28c-10.16-3.84-19.15-8.64-27.33-14.87c-8.18-6.71-15.41-13.92-21.14-23.03
		c-5.72-8.63-10.04-18.23-13.54-28.79c-2.8-10.56-4.67-21.61-4.67-33.11c0-11.03,1.4-21.59,4.32-31.67
		c2.8-10.07,6.65-19.19,11.45-27.35c5.25-8.15,11.56-15.36,19.27-21.11c7.12-6.24,15.29-11.04,24.87-14.39
		c9.12-2.89,19.63-4.81,30.72-4.81c11.57,0,22.08,0.97,31.18,3.36c9.11,1.92,17.28,4.81,23.47,8.17c6.78,3.36,11.56,7.68,15.3,11.99
		c1.99,1.91,2.93,4.8,4.32,7.67c1.05,3.36,1.52,6.73,1.98,10.08c0.47,3.84,1.06,7.2,1.06,11.04c0,3.84,0,7.2,0,10.56h-5.84
		c-3.85-16.8-10.51-29.76-21.14-38.4C1239.99,220.97,1225.62,216.67,1208.33,216.67z"/>
</g>
</svg>
